<?xml version="1.0" encoding="UTF-8" standalone="no"?><!DOCTYPE svg PUBLIC "-//W3C//DTD SVG 1.1//EN" "http://www.w3.org/Graphics/SVG/1.1/DTD/svg11.dtd"><svg width="100%" height="100%" viewBox="0 0 512 512" version="1.1" xmlns="http://www.w3.org/2000/svg" xmlns:xlink="http://www.w3.org/1999/xlink" xml:space="preserve" style="fill-rule:evenodd;clip-rule:evenodd;stroke-linejoin:round;stroke-miterlimit:1.41421;"><path d="M256,0c141.29,0 256,114.71 256,256c0,141.29 -114.71,256 -256,256c-141.29,0 -256,-114.71 -256,-256c0,-141.29 114.71,-256 256,-256Zm-0.041,414.304l-0.001,0.002c0,0 -127.643,-105.567 -148.553,-163.094c-15.819,-43.52 6.671,-91.696 50.191,-107.515c37.038,-13.463 77.447,0.82 98.414,32.199c20.981,-31.37 61.396,-45.635 98.428,-32.157c43.513,15.838 65.983,64.024 50.145,107.537c-20.935,57.518 -148.624,163.03 -148.624,163.03l0,-0.002Z" style="fill:#fff;"/></svg>