<?xml version="1.0" encoding="UTF-8" standalone="no"?><!DOCTYPE svg PUBLIC "-//W3C//DTD SVG 1.1//EN" "http://www.w3.org/Graphics/SVG/1.1/DTD/svg11.dtd"><svg width="100%" height="100%" viewBox="0 0 512 512" version="1.1" xmlns="http://www.w3.org/2000/svg" xmlns:xlink="http://www.w3.org/1999/xlink" xml:space="preserve" style="fill-rule:evenodd;clip-rule:evenodd;stroke-linejoin:round;stroke-miterlimit:1.41421;"><path d="M256,0c141.29,0 256,114.71 256,256c0,141.29 -114.71,256 -256,256c-141.29,0 -256,-114.71 -256,-256c0,-141.29 114.71,-256 256,-256Zm36.873,413.354l0,-214.379l-73.746,0l0,214.379l73.746,0Zm-36.873,-240.962c-12.005,0 -21.867,-3.43 -29.584,-10.29c-7.718,-6.86 -11.577,-15.721 -11.577,-26.583c0,-10.862 3.859,-19.723 11.577,-26.583c7.717,-6.86 17.579,-10.29 29.584,-10.29c12.005,0 21.867,3.43 29.584,10.29c7.718,6.86 11.577,15.721 11.577,26.583c0,10.862 -3.859,19.723 -11.577,26.583c-7.717,6.86 -17.579,10.29 -29.584,10.29Z" style="fill:#fff;"/></svg>